<?xml version="1.0" standalone="no"?>
<!DOCTYPE svg PUBLIC "-//W3C//DTD SVG 20010904//EN"
 "http://www.w3.org/TR/2001/REC-SVG-20010904/DTD/svg10.dtd">
<svg version="1.0" xmlns="http://www.w3.org/2000/svg"
 width="353.000000pt" height="222.000000pt" viewBox="0 0 353.000000 222.000000"
 preserveAspectRatio="xMidYMid meet">

<g transform="translate(0.000000,222.000000) scale(0.100000,-0.100000)"
fill="#000000" stroke="none">
<path d="M2826 1624 c-9 -9 -16 -32 -16 -55 0 -22 -8 -51 -17 -66 -16 -24 -16
-26 0 -38 12 -8 17 -26 17 -58 0 -99 43 -144 91 -96 l20 20 -24 20 c-33 25
-47 111 -23 138 20 22 21 51 1 51 -11 0 -15 12 -15 44 0 51 -11 64 -34 40z"/>
<path d="M337 1623 c-4 -3 -7 -17 -7 -30 0 -19 5 -23 30 -23 27 0 30 3 30 30
0 25 -4 30 -23 30 -13 0 -27 -3 -30 -7z"/>
<path d="M338 1535 c-11 -11 17 -55 35 -55 12 0 17 8 17 30 0 25 -4 30 -23 30
-13 0 -26 -2 -29 -5z"/>
<path d="M427 1534 c-4 -4 -7 -18 -7 -31 0 -19 5 -23 31 -23 27 0 30 3 27 28
-3 26 -34 43 -51 26z"/>
<path d="M2467 1534 c-10 -10 -9 -56 2 -72 6 -10 10 -10 20 2 23 27 2 93 -22
70z"/>
<path d="M623 1523 c-21 -8 -15 -43 6 -43 15 0 19 5 16 21 -5 26 -7 27 -22 22z"/>
<path d="M680 1505 c0 -20 5 -25 25 -25 29 0 36 34 9 44 -27 10 -34 7 -34 -19z"/>
<path d="M773 1513 c-23 -9 -14 -33 12 -33 18 0 25 5 25 20 0 19 -12 24 -37
13z"/>
<path d="M1019 1498 c11 -30 51 -37 51 -10 0 19 -18 32 -45 32 -11 0 -12 -6
-6 -22z"/>
<path d="M500 1496 c0 -10 8 -16 22 -16 12 0 19 1 17 3 -2 1 -12 9 -21 16 -15
12 -18 11 -18 -3z"/>
<path d="M2236 1488 c-8 -13 -17 -34 -21 -48 -7 -23 -6 -24 9 -11 16 13 46 63
46 76 0 13 -21 3 -34 -17z"/>
<path d="M968 1483 c7 -3 16 -2 19 1 4 3 -2 6 -13 5 -11 0 -14 -3 -6 -6z"/>
<path d="M1270 1480 c0 -5 9 -10 19 -10 11 0 23 5 26 10 4 6 -5 10 -19 10 -14
0 -26 -4 -26 -10z"/>
<path d="M1445 1480 c-3 -5 1 -10 9 -10 8 0 18 5 21 10 3 6 -1 10 -9 10 -8 0
-18 -4 -21 -10z"/>
<path d="M1545 1480 c27 -12 35 -12 35 0 0 6 -12 10 -27 9 -25 0 -26 -1 -8 -9z"/>
<path d="M1620 1480 c0 -5 9 -10 20 -10 11 0 20 5 20 10 0 6 -9 10 -20 10 -11
0 -20 -4 -20 -10z"/>
<path d="M1695 1480 c-4 -6 5 -10 19 -10 14 0 26 5 26 10 0 6 -9 10 -19 10
-11 0 -23 -4 -26 -10z"/>
<path d="M1790 1481 c0 -5 9 -7 20 -4 11 3 20 7 20 9 0 2 -9 4 -20 4 -11 0
-20 -4 -20 -9z"/>
<path d="M1888 1483 c7 -3 16 -2 19 1 4 3 -2 6 -13 5 -11 0 -14 -3 -6 -6z"/>
<path d="M2631 1469 c-50 -47 -69 -155 -37 -204 20 -30 74 -42 112 -23 63 30
90 115 59 181 -20 42 -50 56 -73 34 -13 -14 -12 -19 11 -46 35 -42 43 -85 22
-117 -39 -60 -101 8 -91 100 3 27 12 59 21 72 19 30 6 31 -24 3z"/>
<path d="M427 1443 c-4 -3 -7 -17 -7 -30 0 -18 6 -23 24 -23 30 0 40 13 31 40
-6 19 -35 27 -48 13z"/>
<path d="M507 1443 c-4 -3 -7 -17 -7 -30 0 -19 5 -23 30 -23 27 0 30 3 30 30
0 25 -4 30 -23 30 -13 0 -27 -3 -30 -7z"/>
<path d="M680 1442 c0 -10 33 -42 44 -42 4 0 6 10 4 23 -2 14 -11 23 -25 25
-13 2 -23 -1 -23 -6z"/>
<path d="M767 1443 c-4 -3 -7 -17 -7 -30 0 -18 5 -23 25 -23 21 0 25 5 25 30
0 22 -5 30 -18 30 -10 0 -22 -3 -25 -7z"/>
<path d="M965 1440 c4 -6 11 -8 16 -5 14 9 11 15 -7 15 -8 0 -12 -5 -9 -10z"/>
<path d="M1017 1443 c-11 -19 13 -53 38 -53 23 0 26 4 23 28 -2 21 -9 28 -30
30 -14 2 -28 0 -31 -5z"/>
<path d="M1100 1420 c0 -25 4 -30 25 -30 15 0 25 6 25 14 0 28 -12 46 -31 46
-14 0 -19 -7 -19 -30z"/>
<path d="M1270 1433 c0 -11 5 -24 12 -31 7 -7 20 -12 31 -12 14 0 18 6 15 28
-2 21 -9 28 -30 30 -22 3 -28 -1 -28 -15z"/>
<path d="M1437 1423 c-7 -37 -2 -43 31 -34 38 10 39 55 1 59 -22 3 -27 -2 -32
-25z"/>
<path d="M1530 1420 c0 -28 3 -31 28 -28 21 2 27 8 27 28 0 20 -6 26 -27 28
-25 3 -28 0 -28 -28z"/>
<path d="M1617 1443 c-4 -3 -7 -17 -7 -30 0 -19 5 -23 29 -23 30 0 50 28 36
50 -7 11 -48 14 -58 3z"/>
<path d="M1697 1443 c-4 -3 -7 -17 -7 -30 0 -19 5 -23 28 -23 36 0 40 5 34 35
-3 18 -11 25 -26 25 -13 0 -26 -3 -29 -7z"/>
<path d="M1790 1420 c0 -25 4 -30 25 -30 21 0 25 5 25 30 0 25 -4 30 -25 30
-21 0 -25 -5 -25 -30z"/>
<path d="M1877 1443 c-10 -9 -9 -53 1 -53 20 0 45 28 39 44 -6 16 -28 22 -40
9z"/>
<path d="M848 1415 c3 -18 11 -25 28 -25 29 0 32 25 5 40 -30 16 -39 12 -33
-15z"/>
<path d="M1352 1412 c2 -20 9 -28 27 -30 30 -5 42 8 35 34 -4 15 -14 21 -35
22 -27 1 -30 -2 -27 -26z"/>
<path d="M2483 1417 c-12 -20 -5 -153 11 -191 8 -20 22 -36 30 -36 13 0 16 13
16 65 0 115 -31 204 -57 162z"/>
<path d="M590 1406 c0 -10 9 -16 21 -16 24 0 21 23 -4 28 -10 2 -17 -3 -17
-12z"/>
<path d="M2022 1408 c-22 -28 -46 -136 -46 -215 -1 -68 3 -86 20 -110 30 -40
65 -41 98 -3 14 17 26 38 26 45 0 7 3 20 6 29 11 28 -10 17 -28 -14 -40 -70
-70 -14 -72 130 0 54 3 102 7 106 19 19 30 -20 30 -108 l-1 -92 19 34 c23 44
25 140 4 180 -16 31 -45 39 -63 18z"/>
<path d="M2391 1383 c-6 -10 -11 -12 -11 -5 0 23 -30 12 -36 -15 -7 -27 10
-185 21 -203 10 -16 34 -11 45 10 8 14 6 37 -5 85 -20 87 -20 101 0 85 8 -7
15 -19 15 -26 0 -8 5 -14 11 -14 7 0 8 12 4 33 -11 53 -16 67 -25 67 -5 0 -14
-8 -19 -17z"/>
<path d="M2223 1346 c-56 -47 -73 -177 -28 -221 13 -14 28 -25 34 -25 16 0 71
51 87 81 18 36 9 38 -18 4 -25 -33 -56 -32 -68 1 -15 37 -12 117 4 139 13 18
15 17 25 -20 6 -25 7 -54 1 -79 l-9 -39 21 21 c29 29 37 121 13 145 -22 22
-28 22 -62 -7z"/>
<path d="M1795 1351 c-70 -17 -125 -63 -125 -104 0 -15 3 -16 21 -6 19 10 20
9 14 -11 -4 -11 -3 -75 0 -141 7 -115 8 -119 30 -119 32 0 38 30 36 189 -1
100 2 136 11 143 18 11 25 10 42 -8 23 -23 20 -66 -9 -108 l-24 -36 28 0 c51
0 82 -61 62 -123 -12 -37 -40 -54 -96 -59 -22 -2 -31 -9 -33 -25 -3 -21 1 -23
38 -23 33 0 48 7 84 40 53 49 76 94 76 148 0 47 -26 72 -74 72 l-29 0 21 23
c33 35 42 77 26 115 -7 18 -20 32 -28 32 -8 0 -20 2 -28 4 -7 2 -26 1 -43 -3z"/>
<path d="M430 1338 c1 -18 25 -48 39 -48 12 0 14 19 5 44 -7 19 -44 22 -44 4z"/>
<path d="M500 1320 c0 -27 3 -30 30 -30 27 0 30 3 30 30 0 27 -3 30 -30 30
-27 0 -30 -3 -30 -30z"/>
<path d="M590 1320 c0 -28 3 -31 28 -28 21 2 27 8 27 28 0 20 -6 26 -27 28
-25 3 -28 0 -28 -28z"/>
<path d="M782 1338 c6 -18 28 -21 28 -4 0 9 -7 16 -16 16 -9 0 -14 -5 -12 -12z"/>
<path d="M850 1320 c0 -25 4 -30 25 -30 21 0 25 5 25 30 0 25 -4 30 -25 30
-21 0 -25 -5 -25 -30z"/>
<path d="M930 1320 c0 -27 3 -30 30 -30 34 0 38 11 13 40 -25 29 -43 25 -43
-10z"/>
<path d="M1060 1336 c0 -9 5 -16 10 -16 6 0 10 4 10 9 0 6 -4 13 -10 16 -5 3
-10 -1 -10 -9z"/>
<path d="M1102 1323 c2 -20 9 -29 26 -31 19 -3 22 1 22 27 0 27 -4 31 -26 31
-22 0 -25 -4 -22 -27z"/>
<path d="M1182 1325 c4 -44 61 -46 66 -2 3 25 0 27 -32 27 -32 0 -36 -3 -34
-25z"/>
<path d="M1352 1323 c2 -22 9 -29 31 -31 24 -3 27 0 27 27 0 28 -3 31 -31 31
-27 0 -30 -3 -27 -27z"/>
<path d="M1430 1338 c0 -24 26 -50 46 -46 13 2 19 12 19 28 0 21 -5 26 -32 28
-23 2 -33 -1 -33 -10z"/>
<path d="M1530 1320 c0 -25 4 -30 24 -30 23 0 36 16 36 46 0 9 -11 14 -30 14
-27 0 -30 -3 -30 -30z"/>
<path d="M1610 1325 c0 -18 7 -26 26 -31 30 -8 44 8 37 37 -4 13 -14 19 -34
19 -24 0 -29 -4 -29 -25z"/>
<path d="M1690 1340 c0 -13 11 -13 30 0 12 8 11 10 -7 10 -13 0 -23 -4 -23
-10z"/>
<path d="M680 1310 c0 -13 7 -20 20 -20 23 0 26 10 8 28 -18 18 -28 15 -28 -8z"/>
<path d="M1270 1306 c0 -9 5 -16 10 -16 6 0 10 4 10 9 0 6 -4 13 -10 16 -5 3
-10 -1 -10 -9z"/>
<path d="M510 1262 c0 -4 12 -19 26 -33 l26 -24 -4 30 c-2 22 -9 31 -25 33
-13 2 -23 -1 -23 -6z"/>
<path d="M597 1263 c-4 -3 -7 -19 -7 -35 0 -23 4 -28 24 -28 31 0 38 12 30 45
-6 24 -32 34 -47 18z"/>
<path d="M680 1236 c0 -32 3 -36 26 -36 23 0 25 3 22 33 -2 24 -8 33 -25 35
-20 3 -23 -1 -23 -32z"/>
<path d="M860 1256 c0 -7 7 -19 15 -26 19 -16 41 1 32 24 -8 20 -47 21 -47 2z"/>
<path d="M937 1263 c-4 -3 -7 -19 -7 -35 0 -23 4 -28 24 -28 17 0 26 7 30 25
4 14 4 30 1 35 -7 11 -38 13 -48 3z"/>
<path d="M1186 1252 c-10 -30 4 -52 31 -52 21 0 24 4 21 33 -2 24 -8 33 -25
35 -14 2 -23 -3 -27 -16z"/>
<path d="M1270 1234 c0 -33 2 -35 28 -32 49 6 40 67 -10 68 -14 0 -18 -8 -18
-36z"/>
<path d="M1362 1258 c-15 -15 -16 -54 -2 -63 6 -3 19 -3 30 0 27 9 29 75 2 75
-10 0 -23 -5 -30 -12z"/>
<path d="M1435 1260 c-3 -5 -3 -21 1 -35 5 -19 12 -25 35 -25 24 0 29 4 29 23
0 13 -5 28 -12 35 -14 14 -44 16 -53 2z"/>
<path d="M1530 1235 c0 -30 3 -35 24 -35 27 0 37 18 29 49 -3 14 -13 21 -29
21 -21 0 -24 -5 -24 -35z"/>
<path d="M1617 1263 c-4 -3 -7 -19 -7 -35 0 -25 4 -28 31 -28 24 0 30 3 25 16
-3 9 -6 24 -6 35 0 19 -29 27 -43 12z"/>
<path d="M1020 1230 c0 -25 4 -30 25 -30 27 0 35 26 13 48 -21 21 -38 13 -38
-18z"/>
<path d="M1120 1251 c0 -5 7 -14 15 -21 13 -10 15 -9 15 9 0 12 -6 21 -15 21
-8 0 -15 -4 -15 -9z"/>
<path d="M760 1220 c0 -15 7 -20 25 -20 27 0 32 9 13 28 -18 18 -38 14 -38 -8z"/>
<path d="M2786 1218 c-9 -12 -16 -33 -16 -46 0 -13 -4 -21 -9 -18 -5 3 -14 -1
-21 -9 -11 -13 -14 -13 -26 2 -17 24 -37 4 -37 -37 0 -41 20 -61 37 -38 8 11
21 14 39 11 16 -3 27 -1 27 6 0 6 10 11 23 11 13 0 28 5 35 12 15 15 16 74 2
83 -5 3 -10 15 -10 26 0 26 -25 24 -44 -3z m35 -78 c6 0 7 -5 3 -11 -10 -16
-24 10 -22 41 1 24 1 24 5 -2 2 -16 9 -28 14 -28z"/>
<path d="M2618 1169 c-10 -5 -20 -26 -24 -47 -7 -39 -39 -82 -61 -82 -20 0
-20 56 -1 75 7 7 9 0 6 -22 -3 -22 0 -33 8 -33 26 0 34 77 9 86 -25 10 -63
-23 -76 -66 -11 -37 -11 -43 8 -62 20 -19 22 -20 57 -3 20 10 36 22 36 27 0 5
9 6 20 3 11 -3 29 -4 39 0 19 6 35 41 22 50 -4 2 -6 17 -3 33 5 34 -15 55 -40
41z"/>
<path d="M590 1162 c0 -15 48 -54 53 -44 13 20 -5 52 -29 52 -13 0 -24 -4 -24
-8z"/>
<path d="M760 1152 c0 -21 18 -42 37 -42 8 0 13 12 13 30 0 25 -4 30 -25 30
-17 0 -25 -5 -25 -18z"/>
<path d="M937 1164 c-3 -4 1 -17 10 -30 17 -27 49 -34 39 -8 -3 9 -6 22 -6 30
0 14 -31 20 -43 8z"/>
<path d="M1020 1155 c-19 -23 -4 -47 27 -43 22 2 29 9 31 31 3 23 0 27 -21 27
-14 0 -30 -7 -37 -15z"/>
<path d="M1100 1140 c0 -25 4 -30 25 -30 15 0 25 6 25 14 0 28 -12 46 -31 46
-14 0 -19 -7 -19 -30z"/>
<path d="M1186 1155 c-9 -24 4 -45 29 -45 29 0 36 10 28 38 -6 26 -48 31 -57
7z"/>
<path d="M1270 1140 c0 -28 3 -31 28 -28 21 2 27 8 27 28 0 20 -6 26 -27 28
-25 3 -28 0 -28 -28z"/>
<path d="M1357 1164 c-4 -4 -7 -18 -7 -31 0 -21 4 -24 33 -21 27 2 32 7 32 28
0 19 -6 26 -25 28 -14 2 -29 0 -33 -4z"/>
<path d="M1435 1160 c-3 -5 -3 -19 0 -31 10 -31 60 -23 60 11 0 20 -6 26 -27
28 -14 2 -29 -2 -33 -8z"/>
<path d="M1530 1140 c0 -25 4 -30 24 -30 30 0 40 13 31 40 -4 13 -15 20 -31
20 -20 0 -24 -5 -24 -30z"/>
<path d="M1617 1164 c-4 -4 -7 -18 -7 -31 0 -21 4 -24 32 -21 27 2 33 7 33 28
0 19 -6 26 -26 28 -13 2 -28 0 -32 -4z"/>
<path d="M840 1151 c0 -23 14 -41 31 -41 24 0 24 12 1 33 -21 19 -32 22 -32 8z"/>
<path d="M680 1125 c0 -8 4 -15 10 -15 5 0 7 7 4 15 -4 8 -8 15 -10 15 -2 0
-4 -7 -4 -15z"/>
<path d="M3320 1109 c-105 -37 -180 -55 -287 -68 -51 -6 -101 -20 -132 -35
-50 -26 -180 -126 -238 -183 -21 -22 -48 -36 -80 -43 -26 -6 -64 -17 -84 -26
-35 -15 -39 -15 -145 23 -105 37 -114 38 -234 37 -142 -1 -193 -16 -305 -92
-46 -31 -61 -37 -63 -26 -3 10 -13 14 -30 12 -23 -3 -27 -7 -26 -35 2 -29 -2
-32 -42 -44 -24 -8 -44 -19 -44 -25 0 -14 -107 -76 -133 -78 -10 -1 -21 -6
-25 -12 -4 -7 -31 -20 -60 -29 -79 -26 -53 -40 71 -40 90 0 110 4 167 29 36
15 77 30 92 33 15 3 26 9 23 13 -8 14 25 33 58 34 23 1 33 6 35 21 7 36 22 41
22 7 0 -29 3 -32 30 -32 27 0 30 3 30 34 0 25 -5 35 -17 38 -10 2 15 19 61 43
l79 40 131 0 c107 0 137 -3 164 -18 42 -23 40 -35 -8 -54 -22 -9 -40 -20 -40
-24 0 -34 129 -39 216 -9 66 23 258 54 280 46 28 -11 14 25 -27 69 -23 25 -40
47 -38 49 2 2 45 29 95 60 54 33 132 70 190 90 243 82 383 154 417 212 11 20
-5 17 -103 -17z"/>
<path d="M680 1060 c0 -16 26 -40 44 -40 3 0 6 14 6 30 0 25 -4 30 -25 30 -18
0 -25 -5 -25 -20z"/>
<path d="M850 1050 c0 -25 4 -30 24 -30 16 0 26 7 29 22 8 29 1 38 -29 38 -20
0 -24 -5 -24 -30z"/>
<path d="M1020 1052 c0 -31 19 -46 46 -35 9 3 14 15 12 32 -2 20 -9 27 -30 29
-25 3 -28 0 -28 -26z"/>
<path d="M1100 1056 c0 -17 7 -25 25 -28 22 -5 25 -2 25 23 0 24 -4 29 -25 29
-20 0 -25 -5 -25 -24z"/>
<path d="M1192 1068 c-6 -6 -12 -20 -12 -31 0 -15 6 -18 33 -15 27 2 32 7 32
28 0 28 -32 39 -53 18z"/>
<path d="M1264 1065 c-9 -23 3 -45 25 -45 19 0 31 18 31 46 0 19 -49 18 -56
-1z"/>
<path d="M1355 1070 c-12 -20 6 -50 30 -50 29 0 36 10 28 38 -6 23 -46 31 -58
12z"/>
<path d="M1434 1066 c-11 -28 4 -48 33 -44 22 2 28 8 28 28 0 20 -6 26 -28 28
-18 2 -29 -2 -33 -12z"/>
<path d="M1530 1050 c0 -28 3 -31 27 -28 22 2 28 8 28 28 0 20 -6 26 -27 28
-25 3 -28 0 -28 -28z"/>
<path d="M1610 1050 c0 -26 3 -30 29 -30 31 0 41 13 33 43 -3 11 -14 17 -33
17 -26 0 -29 -4 -29 -30z"/>
<path d="M930 1040 c0 -11 7 -20 15 -20 13 0 14 4 5 20 -6 11 -13 20 -15 20
-3 0 -5 -9 -5 -20z"/>
<path d="M2213 1023 c7 -38 -1 -57 -19 -42 -11 9 -15 7 -20 -5 -5 -13 -9 -14
-21 -4 -11 9 -16 9 -24 -3 -5 -8 -9 -21 -9 -29 0 -13 -1 -13 -10 0 -8 12 -13
13 -30 2 -12 -7 -20 -8 -20 -2 0 19 -21 10 -29 -12 -6 -18 -9 -19 -14 -5 -15
41 -67 -2 -67 -55 0 -22 5 -28 22 -28 12 0 30 8 40 17 15 14 21 15 27 4 7 -10
12 -9 22 6 11 15 23 19 52 17 32 -3 40 1 49 22 7 15 14 20 18 13 5 -7 19 -9
39 -4 35 8 40 28 19 95 -14 45 -33 55 -25 13z m-226 -135 c-3 -8 -6 -5 -6 6
-1 11 2 17 5 13 3 -3 4 -12 1 -19z m43 2 c0 -5 -4 -10 -10 -10 -5 0 -10 5 -10
10 0 6 5 10 10 10 6 0 10 -4 10 -10z"/>
<path d="M2272 1018 c-14 -14 -16 -58 -3 -58 5 0 7 -9 4 -20 -4 -16 0 -20 20
-20 30 0 53 32 41 58 -4 9 -8 24 -8 32 -1 19 -37 25 -54 8z"/>
<path d="M2390 1015 c0 -8 6 -15 14 -15 8 0 16 7 20 15 4 10 -1 15 -14 15 -11
0 -20 -7 -20 -15z"/>
<path d="M760 960 c0 -25 4 -30 25 -30 27 0 31 10 15 41 -17 30 -40 24 -40
-11z"/>
<path d="M890 974 c0 -8 5 -12 10 -9 6 4 8 11 5 16 -9 14 -15 11 -15 -7z"/>
<path d="M930 960 c0 -25 4 -30 25 -30 21 0 25 5 25 30 0 25 -4 30 -25 30 -21
0 -25 -5 -25 -30z"/>
<path d="M1100 962 c0 -22 5 -32 16 -32 11 0 14 6 9 23 -12 38 -25 43 -25 9z"/>
<path d="M1192 963 c3 -30 35 -44 48 -23 14 22 -1 50 -27 50 -21 0 -24 -4 -21
-27z"/>
<path d="M1270 961 c0 -28 3 -31 31 -31 27 0 30 3 27 28 -2 21 -9 28 -30 30
-25 3 -28 0 -28 -27z"/>
<path d="M1434 976 c-11 -28 4 -48 33 -44 22 2 28 8 28 28 0 20 -6 26 -28 28
-18 2 -29 -2 -33 -12z"/>
<path d="M1530 960 c0 -28 3 -31 27 -28 22 2 28 8 28 28 0 20 -6 26 -28 28
-24 3 -27 0 -27 -28z"/>
<path d="M1610 960 c0 -26 3 -30 29 -30 23 0 30 5 33 25 6 30 2 35 -34 35 -24
0 -28 -4 -28 -30z"/>
<path d="M1050 971 c0 -5 7 -14 15 -21 16 -14 18 -10 9 14 -6 17 -24 22 -24 7z"/>
<path d="M1700 945 c0 -8 7 -15 15 -15 8 0 15 4 15 9 0 5 -7 11 -15 15 -9 3
-15 0 -15 -9z"/>
<path d="M1878 939 c-22 -12 -24 -44 -3 -35 12 4 15 -4 15 -39 0 -86 39 -65
43 23 3 57 1 62 -17 62 -12 0 -29 -5 -38 -11z"/>
<path d="M1106 892 c-3 -3 -6 -18 -6 -34 0 -23 4 -28 25 -28 21 0 25 5 25 29
0 20 -6 30 -19 34 -11 3 -22 2 -25 -1z"/>
<path d="M1543 889 c-26 -10 -27 -13 -13 -40 6 -10 20 -19 30 -19 15 0 20 7
20 29 0 36 -8 41 -37 30z"/>
<path d="M1623 893 c-7 -2 -13 -18 -13 -34 0 -28 2 -30 32 -27 38 3 48 27 23
52 -17 17 -22 18 -42 9z"/>
<path d="M780 877 c0 -7 7 -22 15 -33 14 -18 14 -17 15 14 0 22 -5 32 -15 32
-8 0 -15 -6 -15 -13z"/>
<path d="M960 880 c0 -5 7 -10 16 -10 8 0 12 5 9 10 -3 6 -10 10 -16 10 -5 0
-9 -4 -9 -10z"/>
<path d="M1015 870 c-9 -27 1 -40 31 -40 29 0 42 24 24 45 -18 21 -48 19 -55
-5z"/>
<path d="M1272 864 c4 -34 34 -56 48 -34 5 8 10 25 10 38 0 18 -5 22 -31 22
-27 0 -30 -3 -27 -26z"/>
<path d="M1352 863 c2 -20 9 -29 26 -31 24 -4 28 9 12 39 -17 30 -42 24 -38
-8z"/>
<path d="M1465 860 c11 -22 20 -29 27 -22 16 16 4 47 -20 50 -23 4 -23 3 -7
-28z"/>
<path d="M1690 861 c0 -19 6 -30 18 -33 29 -8 42 2 42 33 0 26 -4 29 -30 29
-26 0 -30 -3 -30 -29z"/>
<path d="M850 850 c0 -19 11 -26 23 -14 8 8 -3 34 -14 34 -5 0 -9 -9 -9 -20z"/>
<path d="M850 776 c0 -32 3 -36 26 -36 23 0 25 3 22 33 -2 24 -8 33 -25 35
-20 3 -23 -1 -23 -32z"/>
<path d="M1030 805 c0 -12 33 -55 42 -55 5 0 8 12 6 28 -2 19 -9 28 -25 30
-13 2 -23 1 -23 -3z"/>
<path d="M1100 775 c0 -31 3 -35 25 -35 22 0 25 4 25 35 0 31 -3 35 -25 35
-22 0 -25 -4 -25 -35z"/>
<path d="M1291 780 c13 -35 34 -35 34 1 0 17 -6 25 -22 27 -21 3 -22 1 -12
-28z"/>
<path d="M1354 796 c-12 -31 0 -51 31 -51 27 0 30 3 30 30 0 25 -4 30 -28 33
-17 2 -29 -2 -33 -12z"/>
<path d="M1530 774 c0 -33 2 -35 28 -32 47 5 32 68 -17 68 -6 0 -11 -16 -11
-36z"/>
<path d="M1614 796 c-11 -28 1 -51 27 -54 29 -3 41 14 32 47 -6 25 -50 29 -59
7z"/>
<path d="M1692 778 c2 -27 8 -34 30 -36 19 -2 27 2 30 15 8 36 -3 53 -34 53
-27 0 -29 -2 -26 -32z"/>
<path d="M1785 780 c-8 -26 1 -40 27 -40 14 0 18 5 14 16 -3 9 -6 19 -6 24 0
18 -29 18 -35 0z"/>
<path d="M1180 766 c0 -8 5 -18 10 -21 6 -3 10 3 10 14 0 12 -4 21 -10 21 -5
0 -10 -6 -10 -14z"/>
<path d="M862 683 c2 -17 10 -29 21 -31 13 -3 17 3 17 27 0 25 -4 31 -21 31
-16 0 -20 -5 -17 -27z"/>
<path d="M1125 688 c12 -39 25 -44 25 -10 0 22 -5 32 -16 32 -11 0 -14 -6 -9
-22z"/>
<path d="M1189 708 c-13 -45 2 -67 36 -54 12 4 13 10 3 31 -6 14 -17 25 -25
25 -7 0 -13 -1 -14 -2z"/>
<path d="M1355 700 c-12 -20 6 -50 30 -50 25 0 38 21 29 45 -7 17 -49 20 -59
5z"/>
<path d="M1434 695 c-9 -21 3 -45 21 -45 16 0 19 17 9 44 -8 20 -23 21 -30 1z"/>
<path d="M1550 691 c0 -10 6 -24 14 -30 11 -9 15 -6 18 19 4 24 1 30 -14 30
-11 0 -18 -7 -18 -19z"/>
<path d="M1614 695 c-10 -25 4 -45 30 -45 13 0 26 7 30 15 9 25 -5 45 -30 45
-14 0 -27 -7 -30 -15z"/>
<path d="M930 666 c0 -9 5 -16 10 -16 6 0 10 4 10 9 0 6 -4 13 -10 16 -5 3
-10 -1 -10 -9z"/>
<path d="M1395 620 c-4 -6 -3 -16 3 -22 6 -6 12 -6 17 2 4 6 3 16 -3 22 -6 6
-12 6 -17 -2z"/>
<path d="M880 611 c0 -6 5 -13 10 -16 6 -3 10 1 10 9 0 9 -4 16 -10 16 -5 0
-10 -4 -10 -9z"/>
<path d="M1189 593 c5 -18 15 -29 30 -31 19 -3 22 0 19 25 -2 22 -9 29 -30 31
-25 3 -26 1 -19 -25z"/>
<path d="M1430 602 c0 -25 24 -45 47 -40 12 2 18 12 18 28 0 21 -5 26 -32 28
-27 3 -33 0 -33 -16z"/>
<path d="M930 588 c0 -16 4 -28 9 -28 18 0 20 17 6 36 -14 18 -14 18 -15 -8z"/>
<path d="M1780 520 c0 -5 14 -10 30 -10 17 0 30 5 30 10 0 6 -13 10 -30 10
-16 0 -30 -4 -30 -10z"/>
<path d="M1860 520 c0 -5 14 -10 30 -10 17 0 30 5 30 10 0 6 -13 10 -30 10
-16 0 -30 -4 -30 -10z"/>
</g>
</svg>
